<svg width="72" height="73" viewBox="0 0 72 73" fill="none" xmlns="http://www.w3.org/2000/svg">
<path d="M53.1279 14.2084C46.8138 12.3381 44.831 15.8818 35.9998 15.8818C27.1685 15.8818 25.1857 12.324 18.8717 14.2084C12.5576 16.0787 9.4076 22.7022 6.42635 35.1334C3.4451 47.5787 3.99353 56.5647 7.50916 58.2381C11.0248 59.9115 14.9904 56.0725 18.7732 51.3334C21.8388 47.6209 23.3717 47.3818 35.9998 47.3818C48.6138 47.3818 49.9217 47.4803 53.2263 51.3334C57.0092 56.0725 60.9748 59.9115 64.4904 58.2381C68.006 56.5647 68.5545 47.5787 65.5732 35.1334C62.592 22.7022 59.4279 16.0928 53.1279 14.2084ZM18.0279 37.2147C14.9763 37.2147 12.5013 34.7256 12.5013 31.6459C12.5013 28.5803 14.9763 26.0772 18.0279 26.0772C21.0795 26.0772 23.5545 28.5803 23.5545 31.6459C23.5545 34.7115 21.0795 37.2147 18.0279 37.2147ZM43.5513 34.3881C42.0607 34.3881 40.8373 33.1647 40.8373 31.66C40.8373 30.1553 42.0607 28.9318 43.5513 28.9318C45.056 28.9318 46.2795 30.1553 46.2795 31.66C46.2654 33.1647 45.056 34.3881 43.5513 34.3881ZM49.4857 40.3506C47.9951 40.3506 46.7717 39.1272 46.7717 37.6225C46.7717 36.1037 47.9951 34.8943 49.4857 34.8943C50.9904 34.8943 52.2138 36.1178 52.2138 37.6225C52.2138 39.1412 50.9904 40.3506 49.4857 40.3506ZM49.4857 28.4115C47.9951 28.4115 46.7717 27.1881 46.7717 25.6834C46.7717 24.1787 47.9951 22.9553 49.4857 22.9553C50.9904 22.9553 52.2138 24.1787 52.2138 25.6834C52.2138 27.1881 50.9904 28.4115 49.4857 28.4115ZM55.4342 34.3881C53.9295 34.3881 52.7201 33.1647 52.7201 31.66C52.7201 30.1553 53.9435 28.9318 55.4342 28.9318C56.9248 28.9318 58.1482 30.1553 58.1482 31.66C58.1482 33.1647 56.9388 34.3881 55.4342 34.3881Z" fill="url(#paint0_linear_366_9950)"/>
<defs>
<linearGradient id="paint0_linear_366_9950" x1="12.4998" y1="23.1318" x2="40.3073" y2="53.4732" gradientUnits="userSpaceOnUse">
<stop stop-color="#F2D477"/>
<stop offset="1" stop-color="#F8C326"/>
</linearGradient>
</defs>
</svg>
