<svg width="72" height="73" viewBox="0 0 72 73" fill="none" xmlns="http://www.w3.org/2000/svg">
<path d="M31.3898 4.09117C34.0414 1.81389 37.9586 1.81389 40.6102 4.09117C42.316 5.55618 44.6166 6.12322 46.8079 5.61876C50.2141 4.83461 53.6826 6.655 54.9722 9.90371C55.8018 11.9936 57.5754 13.5649 59.75 14.1365C63.1305 15.0251 65.3557 18.2489 64.9878 21.7248C64.7512 23.9609 65.5914 26.1763 67.2514 27.6932C69.8316 30.051 70.3038 33.9396 68.3627 36.8464C67.114 38.7163 66.8284 41.0685 67.5933 43.183C68.7823 46.4698 67.3933 50.1324 64.3237 51.8042C62.349 52.8797 61.003 54.8297 60.6977 57.0575C60.223 60.5204 57.291 63.118 53.7961 63.1718C51.5478 63.2064 49.4497 64.3075 48.1441 66.1382C46.1145 68.9838 42.3112 69.9213 39.1916 68.3447C37.1847 67.3306 34.8153 67.3306 32.8084 68.3447C29.6888 69.9213 25.8855 68.9838 23.8559 66.1382C22.5502 64.3075 20.4522 63.2064 18.2039 63.1718C14.709 63.118 11.777 60.5204 11.3023 57.0575C10.997 54.8297 9.65096 52.8797 7.67626 51.8042C4.60669 50.1324 3.21765 46.4698 4.40666 43.183C5.17156 41.0685 4.88596 38.7163 3.63725 36.8464C1.6962 33.9396 2.16836 30.051 4.74865 27.6932C6.40859 26.1763 7.2488 23.9609 7.01215 21.7248C6.64429 18.2489 8.86949 15.0251 12.25 14.1365C14.4247 13.5649 16.1982 11.9936 17.0278 9.90371C18.3174 6.655 21.7859 4.83461 25.1921 5.61876C27.3834 6.12322 29.684 5.55618 31.3898 4.09117Z" fill="url(#paint0_linear_366_9960)"/>
<circle cx="36.4674" cy="35.6643" r="20.5714" fill="#E9BB46"/>
<path d="M36.5 23.1318L40.3333 30.7985L48 31.7568L42.7356 37.6602L44.1667 46.1318L36.5 42.2985L28.8333 46.1318L30.2772 37.6602L25 31.7568L32.6667 30.7985L36.5 23.1318Z" fill="white"/>
<defs>
<linearGradient id="paint0_linear_366_9960" x1="10" y1="33.6318" x2="71.953" y2="77.1987" gradientUnits="userSpaceOnUse">
<stop stop-color="#F2D477"/>
<stop offset="1" stop-color="#F8C326"/>
</linearGradient>
</defs>
</svg>
