<svg width="72" height="73" viewBox="0 0 72 73" fill="none" xmlns="http://www.w3.org/2000/svg">
<rect x="33.0801" y="44.427" width="4.66409" height="16.447" fill="#E5B539"/>
<path d="M20 66.1318C20 62.8181 22.6863 60.1318 26 60.1318H45C48.3137 60.1318 51 62.8181 51 66.1318H20Z" fill="#E5B539"/>
<path d="M16.5885 17.1318H9C8.44771 17.1318 7.9991 17.5819 8.00382 18.1342C8.06363 25.1329 8.93505 29.1318 18 29.1318" stroke="#F3D578" stroke-width="3.20799"/>
<path d="M54.4115 17.1318H62C62.5523 17.1318 63.0009 17.5819 62.9962 18.1342C62.9364 25.1329 62.065 29.1318 53 29.1318" stroke="#FBC420" stroke-width="3.20799"/>
<path d="M56.4461 31.3173C56.4461 42.9845 46.9879 52.4427 35.3207 52.4427C23.6535 52.4427 14.1953 42.9845 14.1953 31.3173C14.1953 19.6501 23.6535 10.1919 35.3207 10.1919C46.9879 10.1919 56.4461 19.6501 56.4461 31.3173Z" fill="url(#paint0_linear_366_9969)"/>
<path d="M14.1953 8.13183C14.1953 7.02727 15.0907 6.13184 16.1953 6.13184H54.4461C55.5507 6.13184 56.4461 7.02727 56.4461 8.13184V30.3301H14.1953V8.13183Z" fill="url(#paint1_linear_366_9969)"/>
<path d="M35.71 18.4166L38.913 24.8226L45.319 25.6233L40.9202 30.5559L42.116 37.6345L35.71 34.4315L29.3041 37.6345L30.5105 30.5559L26.1011 25.6233L32.507 24.8226L35.71 18.4166Z" fill="white"/>
<defs>
<linearGradient id="paint0_linear_366_9969" x1="27.3273" y1="27.7227" x2="48.4647" y2="41.2527" gradientUnits="userSpaceOnUse">
<stop stop-color="#F2D477"/>
<stop offset="1" stop-color="#FBC31F"/>
</linearGradient>
<linearGradient id="paint1_linear_366_9969" x1="27.3273" y1="27.7227" x2="48.4647" y2="41.2527" gradientUnits="userSpaceOnUse">
<stop stop-color="#F2D477"/>
<stop offset="1" stop-color="#FBC31F"/>
</linearGradient>
</defs>
</svg>
