<svg width="72" height="73" viewBox="0 0 72 73" fill="none" xmlns="http://www.w3.org/2000/svg">
<path d="M30.7033 5.64968C33.592 2.64041 38.408 2.64041 41.2967 5.64968C43.0937 7.52167 45.7471 8.30557 48.2726 7.70942C52.3119 6.75593 56.3501 9.40814 57.162 13.4783C57.6709 16.0294 59.4865 18.164 61.9347 19.0436C65.8549 20.452 67.8271 24.862 66.3252 28.7472C65.3844 31.1809 65.7732 33.965 67.3585 36.0373C69.8996 39.3594 69.2267 44.1364 65.8524 46.6077C63.7501 48.1474 62.6066 50.7119 62.8301 53.3081C63.1862 57.4463 60.0594 61.1327 55.9126 61.3678C53.3195 61.5149 50.9847 63.0368 49.7847 65.3403C47.8641 69.027 43.244 70.4145 39.6355 68.3507C37.383 67.0624 34.617 67.0624 32.3645 68.3507C28.756 70.4145 24.1359 69.027 22.2153 65.3403C21.0153 63.0368 18.6805 61.5149 16.0874 61.3678C11.9406 61.1327 8.81378 57.4463 9.16994 53.3081C9.39338 50.7119 8.24988 48.1474 6.14759 46.6077C2.77331 44.1364 2.10044 39.3594 4.64155 36.0373C6.22676 33.965 6.61559 31.1809 5.67482 28.7472C4.17288 24.862 6.14514 20.452 10.0653 19.0436C12.5135 18.164 14.3291 16.0294 14.838 13.4783C15.6499 9.40814 19.6881 6.75593 23.7274 7.70942C26.2529 8.30557 28.9063 7.52167 30.7033 5.64968Z" fill="url(#paint0_linear_366_9981)"/>
<path d="M32.4413 41.5553L27.6488 36.7134C27.3907 36.4521 27.0404 36.3053 26.6751 36.3053C26.3097 36.3053 25.9594 36.4521 25.7013 36.7134C25.1627 37.2576 25.1627 38.1367 25.7013 38.6809L31.4745 44.5134C32.0132 45.0576 32.8833 45.0576 33.422 44.5134L48.0345 29.7506C48.5731 29.2065 48.5731 28.3274 48.0345 27.7832C47.7764 27.5219 47.4261 27.3751 47.0608 27.3751C46.6954 27.3751 46.3451 27.5219 46.0871 27.7832L32.4413 41.5553Z" fill="white" stroke="#FDFDFD" stroke-width="1.06873"/>
<defs>
<linearGradient id="paint0_linear_366_9981" x1="22.3784" y1="33.6994" x2="56.4067" y2="57.574" gradientUnits="userSpaceOnUse">
<stop stop-color="#F2D477"/>
<stop offset="1" stop-color="#FBC31F"/>
</linearGradient>
</defs>
</svg>
