<svg width="22" height="26" viewBox="0 0 22 26" fill="none" xmlns="http://www.w3.org/2000/svg">
<path d="M6.95 7.43941C8.69625 6.13066 11.14 5.55066 13.51 6.04066C15.065 6.36316 16.8725 7.03066 18.3062 8.53066C19.7612 10.0519 20.6938 12.2857 20.7488 15.4657C20.7963 18.1857 19.51 21.1157 17.7838 23.1307C16.9138 24.1469 15.8675 25.0094 14.7213 25.4807C13.55 25.9644 12.2275 26.0544 10.98 25.4082C9.86375 24.8307 9.12875 24.0782 8.7675 23.1407C8.42 22.2419 8.48875 21.3507 8.59875 20.6507L8.64875 20.3619L8.79 19.6494C8.8525 19.3369 8.90125 19.0757 8.92625 18.8344C8.97625 18.3557 8.91625 18.1057 8.80125 17.9269C8.52375 17.4969 8.17125 17.2394 7.65125 16.9019L6.965 16.4582L6.6325 16.2307C5.845 15.6669 5.01 14.8644 4.665 13.4319C4.05875 10.9257 5.1775 8.76941 6.95 7.43941ZM13.0038 8.48941C11.3225 8.14191 9.6125 8.56816 8.44875 9.43941C7.31375 10.2907 6.7675 11.4907 7.095 12.8457C7.25 13.4869 7.57875 13.8419 8.14375 14.2369L8.48875 14.4657L9.0775 14.8407C9.68 15.2369 10.39 15.7782 10.9025 16.5732C11.4587 17.4357 11.49 18.3507 11.4125 19.0932C11.3865 19.3341 11.3507 19.5739 11.305 19.8119L11.1075 20.8119C11.0936 20.8876 11.0807 20.9634 11.0688 21.0394C10.98 21.6044 10.9938 21.9644 11.0988 22.2407C11.19 22.4757 11.415 22.8182 12.1287 23.1882C12.5837 23.4232 13.1163 23.4394 13.7663 23.1707C14.4412 22.8919 15.1838 22.3232 15.885 21.5057C17.3013 19.8519 18.285 17.4957 18.2488 15.5094C18.2025 12.8169 17.4312 11.2332 16.4987 10.2582C15.5475 9.26191 14.2863 8.75441 13.0038 8.48941ZM3.25 2.74316C3.91304 2.74316 4.54893 3.00656 5.01777 3.4754C5.48661 3.94424 5.75 4.58012 5.75 5.24316C5.75 5.90621 5.48661 6.54209 5.01777 7.01093C4.54893 7.47977 3.91304 7.74316 3.25 7.74316C2.58696 7.74316 1.95107 7.47977 1.48223 7.01093C1.01339 6.54209 0.75 5.90621 0.75 5.24316C0.75 4.58012 1.01339 3.94424 1.48223 3.4754C1.95107 3.00656 2.58696 2.74316 3.25 2.74316ZM20.125 3.99316C20.4565 3.99316 20.7745 4.12486 21.0089 4.35928C21.2433 4.5937 21.375 4.91164 21.375 5.24316C21.375 5.57468 21.2433 5.89263 21.0089 6.12705C20.7745 6.36147 20.4565 6.49316 20.125 6.49316C19.7935 6.49316 19.4755 6.36147 19.2411 6.12705C19.0067 5.89263 18.875 5.57468 18.875 5.24316C18.875 4.91164 19.0067 4.5937 19.2411 4.35928C19.4755 4.12486 19.7935 3.99316 20.125 3.99316ZM8.875 0.868164C9.12123 0.868164 9.36505 0.916662 9.59253 1.01089C9.82002 1.10512 10.0267 1.24323 10.2008 1.41734C10.3749 1.59145 10.513 1.79815 10.6073 2.02563C10.7015 2.25312 10.75 2.49694 10.75 2.74316C10.75 2.98939 10.7015 3.23321 10.6073 3.4607C10.513 3.68818 10.3749 3.89488 10.2008 4.06899C10.0267 4.2431 9.82002 4.38121 9.59253 4.47544C9.36505 4.56967 9.12123 4.61816 8.875 4.61816C8.37772 4.61816 7.90081 4.42062 7.54917 4.06899C7.19754 3.71736 7 3.24044 7 2.74316C7 2.24588 7.19754 1.76897 7.54917 1.41734C7.90081 1.06571 8.37772 0.868164 8.875 0.868164ZM15.125 0.868164C15.3712 0.868164 15.615 0.916662 15.8425 1.01089C16.07 1.10512 16.2767 1.24323 16.4508 1.41734C16.6249 1.59145 16.763 1.79815 16.8573 2.02563C16.9515 2.25312 17 2.49694 17 2.74316C17 2.98939 16.9515 3.23321 16.8573 3.4607C16.763 3.68818 16.6249 3.89488 16.4508 4.06899C16.2767 4.2431 16.07 4.38121 15.8425 4.47544C15.615 4.56967 15.3712 4.61816 15.125 4.61816C14.6277 4.61816 14.1508 4.42062 13.7992 4.06899C13.4475 3.71736 13.25 3.24044 13.25 2.74316C13.25 2.24588 13.4475 1.76897 13.7992 1.41734C14.1508 1.06571 14.6277 0.868164 15.125 0.868164Z" fill="#FAC017"/>
</svg>
