<svg width="26" height="29" viewBox="0 0 26 29" fill="none" xmlns="http://www.w3.org/2000/svg">
<path d="M6.91869 13.3544L2.16276 4.84381C1.6159 3.86522 1.34247 3.37593 1.38855 2.97532C1.42875 2.62581 1.61439 2.30941 1.89988 2.10381C2.22711 1.86816 2.78762 1.86816 3.90864 1.86816H6.70217C7.11879 1.86816 7.3271 1.86816 7.51394 1.92833C7.67928 1.98157 7.8317 2.06868 7.9615 2.18411C8.10818 2.31456 8.21391 2.49404 8.42538 2.85301L12.9999 10.6182L17.5744 2.85301C17.7859 2.49404 17.8916 2.31456 18.0383 2.18411C18.1681 2.06868 18.3205 1.98157 18.4858 1.92833C18.6727 1.86816 18.881 1.86816 19.2976 1.86816H22.0911C23.2122 1.86816 23.7727 1.86816 24.0999 2.10381C24.3854 2.30941 24.571 2.62581 24.6112 2.97532C24.6573 3.37593 24.3839 3.86522 23.837 4.84381L19.0811 13.3544M11.1249 16.8682L12.9999 15.6182V21.8682M11.4374 21.8682H14.5624M18.7451 12.9979C21.9181 16.1709 21.9181 21.3154 18.7451 24.4884C15.5721 27.6614 10.4277 27.6614 7.25464 24.4884C4.08164 21.3154 4.08164 16.1709 7.25464 12.9979C10.4276 9.82491 15.5721 9.82491 18.7451 12.9979Z" stroke="#FAC017" stroke-width="2.5" stroke-linecap="round" stroke-linejoin="round"/>
</svg>
