<svg width="28" height="25" viewBox="0 0 28 25" fill="none" xmlns="http://www.w3.org/2000/svg">
<path d="M20.25 15.4932V11.7362C20.25 11.5119 20.25 11.3997 20.2158 11.3007C20.1856 11.2131 20.1363 11.1333 20.0715 11.0671C19.9982 10.9923 19.8979 10.9421 19.6972 10.8418L14 7.99318M4 9.24318V17.7515C4 18.2163 4 18.4488 4.07252 18.6523C4.13664 18.8322 4.24113 18.9951 4.37797 19.1283C4.53277 19.279 4.74409 19.3759 5.16669 19.5696L13.1667 23.2363C13.4732 23.3768 13.6265 23.447 13.7862 23.4747C13.9277 23.4993 14.0723 23.4993 14.2138 23.4747C14.3735 23.447 14.5268 23.3768 14.8333 23.2363L22.8333 19.5696C23.2559 19.3759 23.4672 19.279 23.622 19.1283C23.7589 18.9951 23.8634 18.8322 23.9275 18.6523C24 18.4488 24 18.2163 24 17.7515V9.24318M1.5 7.99318L13.5528 1.96679C13.7168 1.8848 13.7988 1.84381 13.8848 1.82767C13.9609 1.81338 14.0391 1.81338 14.1152 1.82767C14.2012 1.84381 14.2832 1.8848 14.4472 1.96679L26.5 7.99318L14.4472 14.0196C14.2832 14.1016 14.2012 14.1426 14.1152 14.1587C14.0391 14.173 13.9609 14.173 13.8848 14.1587C13.7988 14.1426 13.7168 14.1016 13.5528 14.0196L1.5 7.99318Z" stroke="#FAC017" stroke-width="2.5" stroke-linecap="round" stroke-linejoin="round"/>
</svg>
