<svg width="28" height="29" viewBox="0 0 28 29" fill="none" xmlns="http://www.w3.org/2000/svg">
<path d="M14 4.99317C14 4.58279 13.9192 4.17642 13.7621 3.79728C13.6051 3.41814 13.3749 3.07364 13.0847 2.78346C12.7945 2.49327 12.45 2.26309 12.0709 2.10604C11.6917 1.949 11.2854 1.86817 10.875 1.86817C10.1454 1.86738 9.43846 2.12193 8.87683 2.58767C8.31519 3.05342 7.93423 3.701 7.79998 4.41817C7.38792 4.49537 6.99561 4.65469 6.6464 4.88664C6.29719 5.1186 5.99822 5.41845 5.76729 5.76834C5.53636 6.11823 5.3782 6.51101 5.30221 6.9233C5.22622 7.33558 5.23396 7.75894 5.32498 8.16817C4.76081 8.26832 4.23503 8.52166 3.80514 8.90049C3.37524 9.27932 3.05778 9.76906 2.88746 10.3162C2.71714 10.8632 2.70051 11.4466 2.8394 12.0025C2.97829 12.5585 3.26736 13.0655 3.67498 13.4682C2.98939 13.7847 2.41534 14.3008 2.02794 14.949C1.64054 15.5972 1.45784 16.3472 1.50377 17.1009C1.5497 17.8546 1.8221 18.5769 2.28533 19.1733C2.74856 19.7696 3.38104 20.2122 4.09998 20.4432C3.96271 20.9617 3.96124 21.5069 4.09571 22.0262C4.23018 22.5455 4.49606 23.0214 4.86777 23.4082C5.23947 23.795 5.70447 24.0796 6.21802 24.2346C6.73157 24.3895 7.27637 24.4097 7.79998 24.2932C7.93891 25.0605 8.35974 25.7482 8.97979 26.2212C9.59985 26.6941 10.3743 26.9181 11.1511 26.8492C11.9279 26.7803 12.6509 26.4234 13.178 25.8487C13.7051 25.274 13.9983 24.523 14 23.7432M14 4.99317V23.7432M14 4.99317C14 4.16436 14.3292 3.36951 14.9153 2.78346C15.5013 2.19741 16.2962 1.86817 17.125 1.86817C17.8546 1.86738 18.5615 2.12193 19.1231 2.58767C19.6848 3.05342 20.0657 3.701 20.2 4.41817C20.612 4.49537 21.0043 4.65469 21.3536 4.88664C21.7028 5.1186 22.0017 5.41845 22.2327 5.76834C22.4636 6.11823 22.6218 6.51101 22.6978 6.9233C22.7737 7.33558 22.766 7.75894 22.675 8.16817C23.2392 8.26832 23.7649 8.52166 24.1948 8.90049C24.6247 9.27932 24.9422 9.76906 25.1125 10.3162C25.2828 10.8632 25.2994 11.4466 25.1606 12.0025C25.0217 12.5585 24.7326 13.0655 24.325 13.4682C25.0106 13.7847 25.5846 14.3008 25.972 14.949C26.3594 15.5972 26.5421 16.3472 26.4962 17.1009C26.4503 17.8546 26.1779 18.5769 25.7146 19.1733C25.2514 19.7696 24.6189 20.2122 23.9 20.4432C24.0372 20.9617 24.0387 21.5069 23.9042 22.0262C23.7698 22.5455 23.5039 23.0214 23.1322 23.4082C22.7605 23.795 22.2955 24.0796 21.7819 24.2346C21.2684 24.3895 20.7236 24.4097 20.2 24.2932C20.061 25.0605 19.6402 25.7482 19.0202 26.2212C18.4001 26.6941 17.6256 26.9181 16.8488 26.8492C16.0721 26.7803 15.3491 26.4234 14.822 25.8487C14.2949 25.274 14.0017 24.523 14 23.7432" stroke="#FAC017" stroke-width="2.5" stroke-linecap="round" stroke-linejoin="round"/>
</svg>
