<svg width="45" height="45" viewBox="0 0 45 45" fill="none" xmlns="http://www.w3.org/2000/svg">
<circle cx="22.5" cy="22.5" r="22.5" fill="#B73737"/>
<g clip-path="url(#clip0_371_2129)">
<path d="M33.4258 20.959C33.4251 20.9585 33.4245 20.9578 33.424 20.9572L24.0418 11.5754C23.6419 11.1753 23.1102 10.9551 22.5446 10.9551C21.9791 10.9551 21.4474 11.1753 21.0473 11.5754L11.67 20.9525C11.6669 20.9557 11.6635 20.959 11.6605 20.9621C10.8393 21.7881 10.8407 23.1282 11.6646 23.9521C12.041 24.3287 12.5379 24.5466 13.0694 24.5696C13.0912 24.5717 13.113 24.5728 13.1349 24.5728H13.5087V31.477C13.5087 32.8435 14.6205 33.9551 15.9869 33.9551H19.6575C20.0297 33.9551 20.3314 33.6533 20.3314 33.2813V27.8682C20.3314 27.2447 20.8387 26.7376 21.4621 26.7376H23.6272C24.2506 26.7376 24.7578 27.2447 24.7578 27.8682V33.2813C24.7578 33.6533 25.0594 33.9551 25.4316 33.9551H29.1022C30.4688 33.9551 31.5805 32.8435 31.5805 31.477V24.5728H31.9272C32.4926 24.5728 33.0243 24.3525 33.4245 23.9523C34.2493 23.1272 34.2496 21.7846 33.4258 20.959ZM32.4715 22.9994C32.3261 23.1449 32.1327 23.2251 31.9272 23.2251H30.9066C30.5344 23.2251 30.2328 23.5267 30.2328 23.8989V31.477C30.2328 32.1003 29.7257 32.6075 29.1022 32.6075H26.1054V27.8682C26.1054 26.5018 24.9938 25.3899 23.6272 25.3899H21.4621C20.0955 25.3899 18.9837 26.5018 18.9837 27.8682V32.6075H15.9869C15.3636 32.6075 14.8563 32.1003 14.8563 31.477V23.8989C14.8563 23.5267 14.5547 23.2251 14.1825 23.2251H13.1795C13.1689 23.2244 13.1586 23.2239 13.1479 23.2237C12.9471 23.2202 12.7589 23.1405 12.6178 22.9993C12.3177 22.6992 12.3177 22.2108 12.6178 21.9106C12.6179 21.9106 12.6179 21.9104 12.6181 21.9102L12.6186 21.9097L22.0005 12.5282C22.1458 12.3828 22.339 12.3027 22.5446 12.3027C22.7501 12.3027 22.9433 12.3828 23.0888 12.5282L32.4685 21.9078C32.4699 21.9092 32.4715 21.9106 32.4729 21.912C32.7714 22.2126 32.7709 22.6999 32.4715 22.9994Z" fill="white"/>
</g>
<defs>
<clipPath id="clip0_371_2129">
<rect width="23" height="23" fill="white" transform="translate(11 11)"/>
</clipPath>
</defs>
</svg>
