<svg width="38" height="50" viewBox="0 0 38 50" fill="none" xmlns="http://www.w3.org/2000/svg">
<path d="M9.3602 33.0732L7.33333 48.3333L18.0396 41.9096C18.3888 41.7001 18.5634 41.5953 18.7498 41.5544C18.9146 41.5182 19.0854 41.5182 19.2502 41.5544C19.4366 41.5953 19.6112 41.7001 19.9604 41.9096L30.6667 48.3333L28.6411 33.0666M29.3271 6.91405C29.6874 7.7856 30.3791 8.47836 31.2501 8.84004L34.3042 10.1051C35.1757 10.4662 35.8682 11.1587 36.2292 12.0303C36.5903 12.9019 36.5903 13.8812 36.2292 14.7528L34.9651 17.8048C34.6039 18.6768 34.6034 19.6571 34.9662 20.5287L36.2282 23.5798C36.4072 24.0115 36.4993 24.4742 36.4994 24.9416C36.4995 25.4089 36.4075 25.8717 36.2286 26.3034C36.0498 26.7352 35.7876 27.1275 35.4571 27.4579C35.1267 27.7883 34.7343 28.0503 34.3025 28.229L31.2506 29.4932C30.3791 29.8535 29.6864 30.5453 29.3247 31.4163L28.0597 34.4705C27.6986 35.3421 27.0062 36.0346 26.1346 36.3956C25.263 36.7566 24.2837 36.7566 23.4121 36.3956L20.3602 35.1314C19.4886 34.7713 18.5097 34.772 17.6386 35.1335L14.5846 36.3967C13.7135 36.7569 12.735 36.7566 11.8641 36.3959C10.9933 36.0351 10.3012 35.3435 9.93992 34.4728L8.67451 31.4177C8.31415 30.5462 7.62245 29.8534 6.75148 29.4917L3.69741 28.2266C2.82621 27.8657 2.13395 27.1737 1.77279 26.3026C1.41164 25.4315 1.41115 24.4526 1.77143 23.5811L3.03556 20.5291C3.39569 19.6575 3.39496 18.6785 3.03352 17.8074L1.7712 14.751C1.59223 14.3193 1.50007 13.8566 1.5 13.3893C1.49993 12.9219 1.59193 12.4592 1.77076 12.0274C1.9496 11.5957 2.21175 11.2034 2.54224 10.873C2.87274 10.5426 3.26509 10.2805 3.69689 10.1018L6.74877 8.83767C7.61952 8.47761 8.31185 7.78677 8.67378 6.91676L9.93882 3.86258C10.2998 2.99097 10.9923 2.29847 11.8639 1.93744C12.7355 1.57641 13.7148 1.57641 14.5864 1.93744L17.6382 3.20162C18.5098 3.56176 19.4888 3.56103 20.3598 3.19957L23.4152 1.9394C24.2867 1.57857 25.2658 1.57864 26.1372 1.93961C27.0086 2.30057 27.701 2.99286 28.062 3.86425L29.3274 6.91934L29.3271 6.91405Z" stroke="#FAC017" stroke-width="3" stroke-linecap="round" stroke-linejoin="round"/>
</svg>
