<svg width="50" height="46" viewBox="0 0 50 46" fill="none" xmlns="http://www.w3.org/2000/svg">
<path d="M25 44L24.7665 43.6498C23.1457 41.2186 22.3353 40.0029 21.2645 39.1229C20.3166 38.3438 19.2244 37.7593 18.0504 37.4027C16.7242 37 15.2632 37 12.3412 37H9.13329C6.51971 37 5.21292 37 4.21467 36.4914C3.33658 36.044 2.62267 35.33 2.17526 34.452C1.66663 33.4537 1.66663 32.1469 1.66663 29.5333L1.66663 9.46667C1.66663 6.85309 1.66663 5.5463 2.17526 4.54804C2.62267 3.66995 3.33658 2.95605 4.21467 2.50864C5.21292 2 6.51971 2 9.13329 2H10.0666C15.2938 2 17.9074 2 19.9039 3.01727C21.66 3.91209 23.0879 5.33991 23.9827 7.09609C25 9.0926 25 11.7062 25 16.9333M25 44V16.9333M25 44L25.2334 43.6498C26.8543 41.2186 27.6647 40.0029 28.7354 39.1229C29.6833 38.3438 30.7755 37.7593 31.9495 37.4027C33.2757 37 34.7367 37 37.6587 37H40.8666C43.4802 37 44.787 37 45.7852 36.4914C46.6633 36.044 47.3772 35.33 47.8247 34.452C48.3333 33.4537 48.3333 32.1469 48.3333 29.5333V9.46667C48.3333 6.85309 48.3333 5.5463 47.8247 4.54804C47.3772 3.66995 46.6633 2.95605 45.7852 2.50864C44.787 2 43.4802 2 40.8666 2H39.9333C34.7061 2 32.0926 2 30.096 3.01727C28.3399 3.91209 26.912 5.33991 26.0172 7.09609C25 9.0926 25 11.7062 25 16.9333" stroke="#0296E5" stroke-width="3" stroke-linecap="round" stroke-linejoin="round"/>
</svg>
