<svg width="45" height="45" viewBox="0 0 45 45" fill="none" xmlns="http://www.w3.org/2000/svg">
<circle cx="22.5" cy="22.5" r="22.5" fill="#4C61D8"/>
<g clip-path="url(#clip0_380_2754)">
<path d="M33.426 20.959C33.4253 20.9585 33.4248 20.9578 33.4243 20.9572L24.0421 11.5754C23.6421 11.1753 23.1105 10.9551 22.5449 10.9551C21.9793 10.9551 21.4476 11.1753 21.0476 11.5754L11.6703 20.9525C11.6671 20.9557 11.6638 20.959 11.6608 20.9621C10.8396 21.7881 10.841 23.1282 11.6648 23.9521C12.0412 24.3287 12.5382 24.5466 13.0697 24.5696C13.0915 24.5717 13.1132 24.5728 13.1351 24.5728H13.5089V31.477C13.5089 32.8435 14.6207 33.9551 15.9872 33.9551H19.6578C20.03 33.9551 20.3316 33.6533 20.3316 33.2813V27.8682C20.3316 27.2447 20.8389 26.7376 21.4624 26.7376H23.6274C24.2509 26.7376 24.758 27.2447 24.758 27.8682V33.2813C24.758 33.6533 25.0596 33.9551 25.4318 33.9551H29.1024C30.4691 33.9551 31.5807 32.8435 31.5807 31.477V24.5728H31.9274C32.4928 24.5728 33.0245 24.3525 33.4248 23.9523C34.2495 23.1272 34.2499 21.7846 33.426 20.959ZM32.4718 22.9994C32.3263 23.1449 32.1329 23.2251 31.9274 23.2251H30.9069C30.5347 23.2251 30.233 23.5267 30.233 23.8989V31.477C30.233 32.1003 29.7259 32.6075 29.1024 32.6075H26.1057V27.8682C26.1057 26.5018 24.994 25.3899 23.6274 25.3899H21.4624C20.0958 25.3899 18.9839 26.5018 18.9839 27.8682V32.6075H15.9872C15.3639 32.6075 14.8566 32.1003 14.8566 31.477V23.8989C14.8566 23.5267 14.5549 23.2251 14.1827 23.2251H13.1797C13.1692 23.2244 13.1588 23.2239 13.1481 23.2237C12.9474 23.2202 12.7591 23.1405 12.618 22.9993C12.318 22.6992 12.318 22.2108 12.618 21.9106C12.6182 21.9106 12.6182 21.9104 12.6184 21.9102L12.6189 21.9097L22.0007 12.5282C22.146 12.3828 22.3392 12.3027 22.5449 12.3027C22.7504 12.3027 22.9436 12.3828 23.089 12.5282L32.4688 21.9078C32.4702 21.9092 32.4718 21.9106 32.4732 21.912C32.7717 22.2126 32.7711 22.6999 32.4718 22.9994Z" fill="white"/>
</g>
<defs>
<clipPath id="clip0_380_2754">
<rect width="23" height="23" fill="white" transform="translate(11 11)"/>
</clipPath>
</defs>
</svg>
