<svg width="28" height="28" viewBox="0 0 28 28" fill="none" xmlns="http://www.w3.org/2000/svg">
<path d="M14 18.25L10.25 14.5M14 18.25C15.7461 17.5859 17.4211 16.7484 19 15.75M14 18.25V24.5C14 24.5 17.7875 23.8125 19 22C20.35 19.975 19 15.75 19 15.75M10.25 14.5C10.9152 12.7743 11.7528 11.1201 12.75 9.56251C14.2065 7.23374 16.2345 5.31632 18.6413 3.99262C21.048 2.66892 23.7533 1.98297 26.5 2C26.5 5.4 25.525 11.375 19 15.75M10.25 14.5H4C4 14.5 4.6875 10.7125 6.5 9.5C8.525 8.15 12.75 9.5 12.75 9.5M4.625 20.125C2.75 21.7 2.125 26.375 2.125 26.375C2.125 26.375 6.8 25.75 8.375 23.875C9.2625 22.825 9.25 21.2125 8.2625 20.2375C7.77663 19.7738 7.13662 19.5058 6.46528 19.485C5.79395 19.4643 5.1386 19.6922 4.625 20.125Z" stroke="#D58CF7" stroke-width="2.5" stroke-linecap="round" stroke-linejoin="round"/>
</svg>
