<svg width="28" height="29" viewBox="0 0 28 29" fill="none" xmlns="http://www.w3.org/2000/svg">
<path d="M14 18.25C9.85786 18.25 6.5 14.8921 6.5 10.75V3.80556C6.5 3.28825 6.5 3.02959 6.57538 2.82247C6.70176 2.47527 6.97527 2.20176 7.32247 2.07538C7.52959 2 7.78825 2 8.30556 2H19.6944C20.2118 2 20.4704 2 20.6775 2.07538C21.0247 2.20176 21.2982 2.47527 21.4246 2.82247C21.5 3.02959 21.5 3.28825 21.5 3.80556V10.75C21.5 14.8921 18.1421 18.25 14 18.25ZM14 18.25V22M21.5 4.5H24.625C25.2074 4.5 25.4986 4.5 25.7284 4.59515C26.0346 4.72202 26.278 4.96536 26.4048 5.27165C26.5 5.50136 26.5 5.79257 26.5 6.375V7C26.5 8.16246 26.5 8.7437 26.3722 9.22057C26.0255 10.5147 25.0147 11.5255 23.7206 11.8722C23.2437 12 22.6625 12 21.5 12M6.5 4.5H3.375C2.79257 4.5 2.50136 4.5 2.27165 4.59515C1.96536 4.72202 1.72202 4.96536 1.59515 5.27165C1.5 5.50136 1.5 5.79257 1.5 6.375V7C1.5 8.16246 1.5 8.7437 1.62778 9.22057C1.97453 10.5147 2.98533 11.5255 4.27943 11.8722C4.7563 12 5.33754 12 6.5 12M8.30556 27H19.6944C20.0013 27 20.25 26.7513 20.25 26.4444C20.25 23.9898 18.2602 22 15.8056 22H12.1944C9.73985 22 7.75 23.9898 7.75 26.4444C7.75 26.7513 7.99873 27 8.30556 27Z" stroke="#D58CF7" stroke-width="2.5" stroke-linecap="round" stroke-linejoin="round"/>
</svg>
