<svg width="28" height="25" viewBox="0 0 28 25" fill="none" xmlns="http://www.w3.org/2000/svg">
<path d="M2.12442 8.75H25.8744M11.4994 1.25L8.99942 8.75L13.9994 23.125L18.9994 8.75L16.4994 1.25M14.7676 22.8281L25.9659 9.39018C26.1557 9.16244 26.2506 9.04857 26.2869 8.92146C26.3188 8.80939 26.3188 8.69061 26.2869 8.57854C26.2506 8.45143 26.1557 8.33756 25.9659 8.10981L20.5493 1.60982C20.439 1.47755 20.3839 1.41142 20.3164 1.36388C20.2565 1.32176 20.1897 1.29048 20.1191 1.27146C20.0393 1.25 19.9532 1.25 19.781 1.25H8.2178C8.04563 1.25 7.95955 1.25 7.87978 1.27146C7.8091 1.29048 7.74231 1.32176 7.68245 1.36388C7.6149 1.41142 7.55979 1.47756 7.44957 1.60982L2.03291 8.10981C1.84312 8.33756 1.74823 8.45143 1.71197 8.57854C1.68 8.69061 1.68 8.80938 1.71197 8.92145C1.74823 9.04857 1.84312 9.16244 2.03291 9.39018L13.2312 22.8281C13.495 23.1447 13.6269 23.303 13.7849 23.3607C13.9234 23.4114 14.0754 23.4114 14.214 23.3607C14.3719 23.303 14.5038 23.1447 14.7676 22.8281Z" stroke="#D58CF7" stroke-width="2.5" stroke-linecap="round" stroke-linejoin="round"/>
</svg>
