<svg width="28" height="29" viewBox="0 0 28 29" fill="none" xmlns="http://www.w3.org/2000/svg">
<path d="M21.1811 3.01598C22.3871 1.77038 24.3796 1.75427 25.6056 2.9802C26.7979 4.17255 26.8201 6.09876 25.6555 7.31827L22.1822 10.9555C21.91 11.2406 21.7739 11.3831 21.69 11.5501C21.6157 11.6978 21.5715 11.8589 21.56 12.0239C21.5469 12.2103 21.5912 12.4023 21.6799 12.7864L23.8397 22.1459C23.9307 22.5401 23.9762 22.7373 23.9615 22.928C23.9485 23.0968 23.9014 23.2611 23.823 23.4111C23.7343 23.5806 23.5913 23.7237 23.3052 24.0098L22.8417 24.4733C22.084 25.231 21.7052 25.6098 21.3174 25.6784C20.9789 25.7383 20.6306 25.656 20.3545 25.4511C20.0384 25.2163 19.869 24.7081 19.5301 23.6915L17.0179 16.1549L12.8363 20.3366C12.5867 20.5862 12.4619 20.711 12.3784 20.858C12.3044 20.9882 12.2545 21.1306 12.2309 21.2785C12.2042 21.4454 12.2237 21.6208 12.2627 21.9716L12.4924 24.0384C12.5313 24.3892 12.5508 24.5646 12.5242 24.7316C12.5006 24.8794 12.4507 25.0219 12.3767 25.1521C12.2932 25.299 12.1684 25.4239 11.9188 25.6735L11.6719 25.9203C11.0806 26.5117 10.7849 26.8073 10.4564 26.893C10.1682 26.9681 9.86266 26.9378 9.5948 26.8076C9.28941 26.6592 9.05748 26.3113 8.5936 25.6155L6.6332 22.6749C6.55033 22.5506 6.50889 22.4885 6.46078 22.4321C6.41805 22.382 6.37142 22.3354 6.32135 22.2926C6.26497 22.2445 6.20282 22.2031 6.0785 22.1202L3.1379 20.1598C2.44209 19.6959 2.09418 19.464 1.94578 19.1586C1.81562 18.8908 1.78537 18.5852 1.86047 18.2971C1.9461 17.9685 2.24176 17.6728 2.83308 17.0815L3.07997 16.8346C3.32957 16.585 3.45438 16.4602 3.60135 16.3767C3.73155 16.3028 3.87399 16.2528 4.02186 16.2292C4.18878 16.2026 4.3642 16.2221 4.71504 16.2611L6.78178 16.4907C7.13262 16.5297 7.30804 16.5492 7.47496 16.5226C7.62283 16.499 7.76527 16.449 7.89547 16.3751C8.04244 16.2916 8.16725 16.1668 8.41685 15.9172L12.5985 11.7355L5.06191 9.2233C4.04537 8.88446 3.53711 8.71504 3.30236 8.3989C3.09738 8.12285 3.01516 7.77456 3.07505 7.43598C3.14363 7.04824 3.52247 6.6694 4.28015 5.91172L4.74361 5.44826C5.02973 5.16214 5.17279 5.01908 5.34228 4.93047C5.49229 4.85204 5.65667 4.8049 5.82545 4.7919C6.01615 4.77721 6.21328 4.82271 6.60755 4.91369L15.9315 7.06536C16.3189 7.15477 16.5126 7.19948 16.6997 7.18618C16.8802 7.17334 17.0559 7.12142 17.2144 7.03403C17.3786 6.94351 17.5169 6.80068 17.7935 6.51501L21.1811 3.01598Z" stroke="url(#paint0_linear_470_53)" stroke-width="2.5" stroke-linecap="round" stroke-linejoin="round"/>
<defs>
<linearGradient id="paint0_linear_470_53" x1="2.54334" y1="4.92696" x2="26.8981" y2="7.12874" gradientUnits="userSpaceOnUse">
<stop stop-color="#84C24C"/>
<stop offset="1" stop-color="#6BAA32"/>
</linearGradient>
</defs>
</svg>
