<svg width="28" height="25" viewBox="0 0 28 25" fill="none" xmlns="http://www.w3.org/2000/svg">
<path d="M19.0007 6.25031C19.0007 5.08784 19.0007 4.50661 18.873 4.02973C18.5262 2.73564 17.5154 1.72484 16.2213 1.37808C15.7444 1.25031 15.1632 1.25031 14.0007 1.25031C12.8383 1.25031 12.257 1.25031 11.7802 1.37808C10.4861 1.72484 9.47526 2.73564 9.12851 4.02973C9.00073 4.50661 9.00073 5.08784 9.00073 6.25031M5.50073 23.7503H22.5007C23.9009 23.7503 24.6009 23.7503 25.1357 23.4778C25.6061 23.2381 25.9886 22.8557 26.2282 22.3853C26.5007 21.8505 26.5007 21.1504 26.5007 19.7503V10.2503C26.5007 8.85017 26.5007 8.15011 26.2282 7.61533C25.9886 7.14492 25.6061 6.76247 25.1357 6.52279C24.6009 6.25031 23.9009 6.25031 22.5007 6.25031H5.50073C4.1006 6.25031 3.40054 6.25031 2.86576 6.52279C2.39535 6.76247 2.0129 7.14492 1.77322 7.61533C1.50073 8.15011 1.50073 8.85017 1.50073 10.2503V19.7503C1.50073 21.1504 1.50073 21.8505 1.77322 22.3853C2.0129 22.8557 2.39535 23.2381 2.86576 23.4778C3.40054 23.7503 4.1006 23.7503 5.50073 23.7503Z" stroke="url(#paint0_linear_470_44)" stroke-width="2.5" stroke-linecap="round" stroke-linejoin="round"/>
<defs>
<linearGradient id="paint0_linear_470_44" x1="2.23295" y1="3.83477" x2="26.8388" y2="6.3232" gradientUnits="userSpaceOnUse">
<stop stop-color="#84C24C"/>
<stop offset="1" stop-color="#6BAA32"/>
</linearGradient>
</defs>
</svg>
