<svg width="28" height="29" viewBox="0 0 28 29" fill="none" xmlns="http://www.w3.org/2000/svg">
<path d="M17.7505 2.57237C16.5667 2.20056 15.307 2.00012 14.0005 2.00012C7.09693 2.00012 1.50049 7.59656 1.50049 14.5001C1.50049 21.4037 7.09693 27.0001 14.0005 27.0001C20.904 27.0001 26.5005 21.4037 26.5005 14.5001C26.5005 12.356 25.9606 10.3379 25.0094 8.57443M20.2505 6.68762H20.2567M12.1256 26.8604L12.1257 24.1063C12.1257 23.9571 12.1791 23.8128 12.2761 23.6996L15.3834 20.0744C15.6387 19.7765 15.5596 19.3197 15.2189 19.125L11.6487 17.0848C11.5517 17.0294 11.4713 16.9489 11.4159 16.8519L9.08856 12.7734C8.96744 12.5611 8.73371 12.439 8.49028 12.4606L1.58072 13.0761M25.2505 7.00012C25.2505 9.76155 22.7505 12.0001 20.2505 14.5001C17.7505 12.0001 15.2505 9.76155 15.2505 7.00012C15.2505 4.2387 17.4891 2.00012 20.2505 2.00012C23.0119 2.00012 25.2505 4.2387 25.2505 7.00012ZM20.563 6.68762C20.563 6.86021 20.4231 7.00012 20.2505 7.00012C20.0779 7.00012 19.938 6.86021 19.938 6.68762C19.938 6.51503 20.0779 6.37512 20.2505 6.37512C20.4231 6.37512 20.563 6.51503 20.563 6.68762Z" stroke="url(#paint0_linear_470_3)" stroke-width="2.5" stroke-linecap="round" stroke-linejoin="round"/>
<defs>
<linearGradient id="paint0_linear_470_3" x1="2.23271" y1="4.87175" x2="26.886" y2="7.11565" gradientUnits="userSpaceOnUse">
<stop stop-color="#84C24C"/>
<stop offset="1" stop-color="#6BAA32"/>
</linearGradient>
</defs>
</svg>
